<mxfile host="65bd71144e">
    <diagram id="CUgEiXbhRd0vns5lRMoC" name="Page-1">
        <mxGraphModel dx="3405" dy="1046" grid="1" gridSize="10" guides="1" tooltips="1" connect="1" arrows="1" fold="1" page="1" pageScale="1" pageWidth="827" pageHeight="1169" math="0" shadow="0">
            <root>
                <mxCell id="0"/>
                <mxCell id="1" parent="0"/>
                <mxCell id="39" value="" style="rounded=0;whiteSpace=wrap;html=1;fontSize=17;strokeWidth=2;fillColor=#fff2cc;strokeColor=#d6b656;" parent="1" vertex="1">
                    <mxGeometry x="-230" y="384" width="1480" height="466" as="geometry"/>
                </mxCell>
                <mxCell id="277" value="" style="rounded=0;whiteSpace=wrap;html=1;fontSize=17;strokeWidth=2;fillColor=#ffe6cc;strokeColor=#d79b00;" parent="1" vertex="1">
                    <mxGeometry x="770" y="5460" width="510" height="180" as="geometry"/>
                </mxCell>
                <mxCell id="4" value="&lt;font style=&quot;font-size: 17px&quot;&gt;医疗服务&lt;/font&gt;" style="shape=umlLifeline;perimeter=lifelinePerimeter;whiteSpace=wrap;html=1;container=1;collapsible=0;recursiveResize=0;outlineConnect=0;strokeWidth=2;fillColor=#ffe6cc;strokeColor=#d79b00;" parent="1" vertex="1">
                    <mxGeometry x="690" y="170" width="270" height="6950" as="geometry"/>
                </mxCell>
                <mxCell id="272" value="" style="rounded=0;whiteSpace=wrap;html=1;fontSize=17;strokeWidth=2;fillColor=#ffe6cc;strokeColor=#d79b00;" parent="4" vertex="1">
                    <mxGeometry x="80" y="4980" width="510" height="280" as="geometry"/>
                </mxCell>
                <mxCell id="16" value="&lt;span style=&quot;font-size: 17px&quot;&gt;同步第三方科室信息&lt;/span&gt;" style="html=1;verticalAlign=bottom;endArrow=block;strokeWidth=2;entryX=0;entryY=0.125;entryDx=0;entryDy=0;entryPerimeter=0;exitX=1;exitY=0.125;exitDx=0;exitDy=0;exitPerimeter=0;" parent="4" source="13" edge="1">
                    <mxGeometry width="80" relative="1" as="geometry">
                        <mxPoint x="-160" y="260" as="sourcePoint"/>
                        <mxPoint x="120" y="260" as="targetPoint"/>
                    </mxGeometry>
                </mxCell>
                <mxCell id="23" value="" style="html=1;points=[];perimeter=orthogonalPerimeter;fontSize=17;strokeWidth=2;" parent="4" vertex="1">
                    <mxGeometry x="120" y="250" width="30" height="160" as="geometry"/>
                </mxCell>
                <mxCell id="24" value="新增外部科室" style="edgeStyle=orthogonalEdgeStyle;html=1;align=left;spacingLeft=2;endArrow=block;rounded=0;fontSize=17;strokeWidth=2;" parent="4" target="23" edge="1">
                    <mxGeometry relative="1" as="geometry">
                        <mxPoint x="149" y="261" as="sourcePoint"/>
                        <Array as="points">
                            <mxPoint x="149" y="261"/>
                            <mxPoint x="220" y="261"/>
                            <mxPoint x="220" y="310"/>
                        </Array>
                        <mxPoint x="140" y="310" as="targetPoint"/>
                    </mxGeometry>
                </mxCell>
                <mxCell id="25" value="内部科室与外部科室建立映射关系" style="edgeStyle=orthogonalEdgeStyle;html=1;align=left;spacingLeft=2;endArrow=block;rounded=0;fontSize=17;strokeWidth=2;" parent="4" edge="1">
                    <mxGeometry relative="1" as="geometry">
                        <mxPoint x="150" y="340" as="sourcePoint"/>
                        <Array as="points">
                            <mxPoint x="150" y="340"/>
                            <mxPoint x="221" y="340"/>
                            <mxPoint x="221" y="389"/>
                        </Array>
                        <mxPoint x="151" y="389" as="targetPoint"/>
                    </mxGeometry>
                </mxCell>
                <mxCell id="65" value="" style="html=1;points=[];perimeter=orthogonalPerimeter;strokeWidth=2;" parent="4" vertex="1">
                    <mxGeometry x="120" y="960" width="30" height="720" as="geometry"/>
                </mxCell>
                <mxCell id="68" value="&lt;span style=&quot;font-size: 17px ; text-align: left&quot;&gt;调用创建单据接口&lt;/span&gt;" style="html=1;verticalAlign=bottom;endArrow=block;strokeWidth=2;exitX=1.133;exitY=0.363;exitDx=0;exitDy=0;exitPerimeter=0;" parent="4" source="62" edge="1">
                    <mxGeometry width="80" relative="1" as="geometry">
                        <mxPoint x="-150" y="980" as="sourcePoint"/>
                        <mxPoint x="120" y="980" as="targetPoint"/>
                    </mxGeometry>
                </mxCell>
                <mxCell id="69" value="根据外部起点/终点科室找到对应内部起点/终点科室" style="edgeStyle=orthogonalEdgeStyle;html=1;align=left;spacingLeft=2;endArrow=block;rounded=0;fontSize=17;strokeWidth=2;" parent="4" edge="1">
                    <mxGeometry relative="1" as="geometry">
                        <mxPoint x="150" y="980" as="sourcePoint"/>
                        <Array as="points">
                            <mxPoint x="150" y="980"/>
                            <mxPoint x="221" y="980"/>
                            <mxPoint x="221" y="1029"/>
                        </Array>
                        <mxPoint x="151" y="1029" as="targetPoint"/>
                    </mxGeometry>
                </mxCell>
                <mxCell id="70" value="根据物品清单id查询物品清单列表" style="edgeStyle=orthogonalEdgeStyle;html=1;align=left;spacingLeft=2;endArrow=block;rounded=0;fontSize=17;strokeWidth=2;" parent="4" edge="1">
                    <mxGeometry relative="1" as="geometry">
                        <mxPoint x="150" y="1060" as="sourcePoint"/>
                        <Array as="points">
                            <mxPoint x="150" y="1060"/>
                            <mxPoint x="221" y="1060"/>
                            <mxPoint x="221" y="1109"/>
                        </Array>
                        <mxPoint x="151" y="1109" as="targetPoint"/>
                    </mxGeometry>
                </mxCell>
                <mxCell id="71" value="查询来源系统" style="edgeStyle=orthogonalEdgeStyle;html=1;align=left;spacingLeft=2;endArrow=block;rounded=0;fontSize=17;strokeWidth=2;" parent="4" edge="1">
                    <mxGeometry relative="1" as="geometry">
                        <mxPoint x="150" y="1140" as="sourcePoint"/>
                        <Array as="points">
                            <mxPoint x="150" y="1140"/>
                            <mxPoint x="221" y="1140"/>
                            <mxPoint x="221" y="1189"/>
                        </Array>
                        <mxPoint x="151" y="1189" as="targetPoint"/>
                    </mxGeometry>
                </mxCell>
                <mxCell id="73" value="根据配送策略计算格口大小和个数" style="edgeStyle=orthogonalEdgeStyle;html=1;align=left;spacingLeft=2;endArrow=block;rounded=0;fontSize=17;strokeWidth=2;" parent="4" edge="1">
                    <mxGeometry relative="1" as="geometry">
                        <mxPoint x="150" y="1320" as="sourcePoint"/>
                        <Array as="points">
                            <mxPoint x="150" y="1320"/>
                            <mxPoint x="221" y="1320"/>
                            <mxPoint x="221" y="1369"/>
                        </Array>
                        <mxPoint x="151" y="1369" as="targetPoint"/>
                    </mxGeometry>
                </mxCell>
                <mxCell id="74" value="查询当前医院配送策略" style="edgeStyle=orthogonalEdgeStyle;html=1;align=left;spacingLeft=2;endArrow=block;rounded=0;fontSize=17;strokeWidth=2;" parent="4" edge="1">
                    <mxGeometry relative="1" as="geometry">
                        <mxPoint x="150" y="1230" as="sourcePoint"/>
                        <Array as="points">
                            <mxPoint x="150" y="1230"/>
                            <mxPoint x="221" y="1230"/>
                            <mxPoint x="221" y="1279"/>
                        </Array>
                        <mxPoint x="151" y="1279" as="targetPoint"/>
                    </mxGeometry>
                </mxCell>
                <mxCell id="76" value="创建或追加outBoundOrder，初始状态&amp;nbsp;SUBMITTED(&quot;已下单&quot;)" style="edgeStyle=orthogonalEdgeStyle;html=1;align=left;spacingLeft=2;endArrow=block;rounded=0;fontSize=17;strokeWidth=2;" parent="4" edge="1">
                    <mxGeometry relative="1" as="geometry">
                        <mxPoint x="150" y="1580" as="sourcePoint"/>
                        <Array as="points">
                            <mxPoint x="150" y="1580"/>
                            <mxPoint x="221" y="1580"/>
                            <mxPoint x="221" y="1629"/>
                        </Array>
                        <mxPoint x="151" y="1629" as="targetPoint"/>
                    </mxGeometry>
                </mxCell>
                <mxCell id="77" value="根据配送策略计算洁/污标签" style="edgeStyle=orthogonalEdgeStyle;html=1;align=left;spacingLeft=2;endArrow=block;rounded=0;fontSize=17;strokeWidth=2;" parent="4" edge="1">
                    <mxGeometry relative="1" as="geometry">
                        <mxPoint x="150" y="1390" as="sourcePoint"/>
                        <Array as="points">
                            <mxPoint x="150" y="1390"/>
                            <mxPoint x="221" y="1390"/>
                            <mxPoint x="221" y="1439"/>
                        </Array>
                        <mxPoint x="151" y="1439" as="targetPoint"/>
                    </mxGeometry>
                </mxCell>
                <mxCell id="79" value="" style="html=1;points=[];perimeter=orthogonalPerimeter;strokeWidth=2;" parent="4" vertex="1">
                    <mxGeometry x="120" y="1750" width="30" height="1390" as="geometry"/>
                </mxCell>
                <mxCell id="80" value="&lt;span style=&quot;font-size: 17px ; text-align: left&quot;&gt;调用执行单据接口&lt;/span&gt;" style="html=1;verticalAlign=bottom;endArrow=block;strokeWidth=2;exitX=1.133;exitY=0.288;exitDx=0;exitDy=0;exitPerimeter=0;" parent="4" source="78" edge="1">
                    <mxGeometry width="80" relative="1" as="geometry">
                        <mxPoint x="-150" y="1780" as="sourcePoint"/>
                        <mxPoint x="120" y="1780" as="targetPoint"/>
                    </mxGeometry>
                </mxCell>
                <mxCell id="81" value="查询是否存在同躺任务" style="edgeStyle=orthogonalEdgeStyle;html=1;align=left;spacingLeft=2;endArrow=block;rounded=0;fontSize=17;strokeWidth=2;" parent="4" edge="1">
                    <mxGeometry relative="1" as="geometry">
                        <mxPoint x="150" y="1480" as="sourcePoint"/>
                        <Array as="points">
                            <mxPoint x="150" y="1480"/>
                            <mxPoint x="221" y="1480"/>
                            <mxPoint x="221" y="1529"/>
                        </Array>
                        <mxPoint x="151" y="1529" as="targetPoint"/>
                    </mxGeometry>
                </mxCell>
                <mxCell id="82" value="创建运输单，初始状态&amp;nbsp;SUBMITTED 已提交" style="edgeStyle=orthogonalEdgeStyle;html=1;align=left;spacingLeft=2;endArrow=block;rounded=0;fontSize=17;strokeWidth=2;" parent="4" edge="1">
                    <mxGeometry relative="1" as="geometry">
                        <mxPoint x="150" y="1790" as="sourcePoint"/>
                        <Array as="points">
                            <mxPoint x="150" y="1790"/>
                            <mxPoint x="221" y="1790"/>
                            <mxPoint x="221" y="1839"/>
                        </Array>
                        <mxPoint x="151" y="1839" as="targetPoint"/>
                    </mxGeometry>
                </mxCell>
                <mxCell id="83" value="创建运输单下的呼叫单，初始状态REQUESTED 已请求" style="edgeStyle=orthogonalEdgeStyle;html=1;align=left;spacingLeft=2;endArrow=block;rounded=0;fontSize=17;strokeWidth=2;" parent="4" edge="1">
                    <mxGeometry relative="1" as="geometry">
                        <mxPoint x="150" y="1880" as="sourcePoint"/>
                        <Array as="points">
                            <mxPoint x="150" y="1880"/>
                            <mxPoint x="221" y="1880"/>
                            <mxPoint x="221" y="1929"/>
                        </Array>
                        <mxPoint x="151" y="1929" as="targetPoint"/>
                    </mxGeometry>
                </mxCell>
                <mxCell id="111" value="扭转呼叫单状态为PICK_SUCCESS(&quot;呼叫成功&quot;）" style="edgeStyle=orthogonalEdgeStyle;html=1;align=left;spacingLeft=2;endArrow=block;rounded=0;fontSize=17;strokeWidth=2;" parent="4" edge="1">
                    <mxGeometry relative="1" as="geometry">
                        <mxPoint x="150" y="2190" as="sourcePoint"/>
                        <Array as="points">
                            <mxPoint x="150" y="2190"/>
                            <mxPoint x="221" y="2190"/>
                            <mxPoint x="221" y="2239"/>
                        </Array>
                        <mxPoint x="151" y="2239" as="targetPoint"/>
                    </mxGeometry>
                </mxCell>
                <mxCell id="112" value="扭转运输单状态为PICK_SUCCESS(&quot;呼叫成功&quot;）" style="edgeStyle=orthogonalEdgeStyle;html=1;align=left;spacingLeft=2;endArrow=block;rounded=0;fontSize=17;strokeWidth=2;" parent="4" edge="1">
                    <mxGeometry relative="1" as="geometry">
                        <mxPoint x="150" y="2270.5" as="sourcePoint"/>
                        <Array as="points">
                            <mxPoint x="150" y="2270.5"/>
                            <mxPoint x="221" y="2270.5"/>
                            <mxPoint x="221" y="2319.5"/>
                        </Array>
                        <mxPoint x="151" y="2319.5" as="targetPoint"/>
                    </mxGeometry>
                </mxCell>
                <mxCell id="116" value="扭转呼叫单状态为&lt;span style=&quot;text-align: center&quot;&gt;DEPARTED(&quot;已出发&quot;&lt;/span&gt;）" style="edgeStyle=orthogonalEdgeStyle;html=1;align=left;spacingLeft=2;endArrow=block;rounded=0;fontSize=17;strokeWidth=2;" parent="4" edge="1">
                    <mxGeometry relative="1" as="geometry">
                        <mxPoint x="150" y="2719" as="sourcePoint"/>
                        <Array as="points">
                            <mxPoint x="150" y="2719"/>
                            <mxPoint x="221" y="2719"/>
                            <mxPoint x="221" y="2768"/>
                        </Array>
                        <mxPoint x="151" y="2768" as="targetPoint"/>
                    </mxGeometry>
                </mxCell>
                <mxCell id="117" value="&lt;div style=&quot;text-align: center&quot;&gt;扭转运输单状态为&lt;span style=&quot;text-align: center&quot;&gt;PICK_DEPARTED(&quot;呼叫-已出发&quot;)&lt;/span&gt;&lt;/div&gt;" style="edgeStyle=orthogonalEdgeStyle;html=1;align=left;spacingLeft=2;endArrow=block;rounded=0;fontSize=17;strokeWidth=2;" parent="4" edge="1">
                    <mxGeometry relative="1" as="geometry">
                        <mxPoint x="150" y="2809" as="sourcePoint"/>
                        <Array as="points">
                            <mxPoint x="150" y="2809"/>
                            <mxPoint x="221" y="2809"/>
                            <mxPoint x="221" y="2858"/>
                        </Array>
                        <mxPoint x="151" y="2858" as="targetPoint"/>
                    </mxGeometry>
                </mxCell>
                <mxCell id="27" value="" style="html=1;points=[];perimeter=orthogonalPerimeter;fontSize=17;strokeWidth=2;" parent="4" vertex="1">
                    <mxGeometry x="120" y="434" width="30" height="86" as="geometry"/>
                </mxCell>
                <mxCell id="28" value="新增外部物品分类" style="edgeStyle=orthogonalEdgeStyle;html=1;align=left;spacingLeft=2;endArrow=block;rounded=0;fontSize=17;strokeWidth=2;" parent="4" target="27" edge="1">
                    <mxGeometry relative="1" as="geometry">
                        <mxPoint x="149" y="445" as="sourcePoint"/>
                        <Array as="points">
                            <mxPoint x="149" y="445"/>
                            <mxPoint x="220" y="445"/>
                            <mxPoint x="220" y="494"/>
                        </Array>
                        <mxPoint x="-250" y="324" as="targetPoint"/>
                    </mxGeometry>
                </mxCell>
                <mxCell id="119" value="扭转呼叫单状态为&lt;span style=&quot;text-align: center&quot;&gt;ARRIVED(&quot;已到达&quot;)&lt;/span&gt;" style="edgeStyle=orthogonalEdgeStyle;html=1;align=left;spacingLeft=2;endArrow=block;rounded=0;fontSize=17;strokeWidth=2;" parent="4" edge="1">
                    <mxGeometry relative="1" as="geometry">
                        <mxPoint x="150" y="2989" as="sourcePoint"/>
                        <Array as="points">
                            <mxPoint x="150" y="2989"/>
                            <mxPoint x="221" y="2989"/>
                            <mxPoint x="221" y="3038"/>
                        </Array>
                        <mxPoint x="151" y="3038" as="targetPoint"/>
                    </mxGeometry>
                </mxCell>
                <mxCell id="120" value="&lt;div style=&quot;text-align: center&quot;&gt;扭转运输单状态为PICK_ARRIVED(&quot;呼叫到达&quot;）&lt;/div&gt;" style="edgeStyle=orthogonalEdgeStyle;html=1;align=left;spacingLeft=2;endArrow=block;rounded=0;fontSize=17;strokeWidth=2;" parent="4" edge="1">
                    <mxGeometry relative="1" as="geometry">
                        <mxPoint x="150" y="3079" as="sourcePoint"/>
                        <Array as="points">
                            <mxPoint x="150" y="3079"/>
                            <mxPoint x="221" y="3079"/>
                            <mxPoint x="221" y="3128"/>
                        </Array>
                        <mxPoint x="151" y="3128" as="targetPoint"/>
                    </mxGeometry>
                </mxCell>
                <mxCell id="159" value="" style="html=1;points=[];perimeter=orthogonalPerimeter;strokeWidth=2;" parent="4" vertex="1">
                    <mxGeometry x="120" y="3239" width="30" height="80" as="geometry"/>
                </mxCell>
                <mxCell id="160" value="&lt;span style=&quot;font-size: 17px ; text-align: left&quot;&gt;登陆&lt;/span&gt;" style="html=1;verticalAlign=bottom;endArrow=block;strokeWidth=2;" parent="4" target="159" edge="1">
                    <mxGeometry width="80" relative="1" as="geometry">
                        <mxPoint x="-160" y="3249" as="sourcePoint"/>
                        <mxPoint x="280" y="3249" as="targetPoint"/>
                    </mxGeometry>
                </mxCell>
                <mxCell id="161" value="返回账户信息和点位信息" style="html=1;verticalAlign=bottom;endArrow=open;dashed=1;endSize=8;fontSize=17;strokeWidth=2;exitX=-0.067;exitY=0.146;exitDx=0;exitDy=0;exitPerimeter=0;" parent="4" edge="1">
                    <mxGeometry relative="1" as="geometry">
                        <mxPoint x="119.99999999999977" y="3309" as="sourcePoint"/>
                        <mxPoint x="-157.99" y="3309.36" as="targetPoint"/>
                    </mxGeometry>
                </mxCell>
                <mxCell id="163" value="" style="html=1;points=[];perimeter=orthogonalPerimeter;strokeWidth=2;" parent="4" vertex="1">
                    <mxGeometry x="120" y="3359" width="30" height="251" as="geometry"/>
                </mxCell>
                <mxCell id="164" value="&lt;span style=&quot;font-size: 17px ; text-align: left&quot;&gt;将柜子里呼叫单扭转为完成&lt;/span&gt;" style="html=1;verticalAlign=bottom;endArrow=block;strokeWidth=2;" parent="4" edge="1">
                    <mxGeometry width="80" relative="1" as="geometry">
                        <mxPoint x="-160" y="3379" as="sourcePoint"/>
                        <mxPoint x="120" y="3379" as="targetPoint"/>
                    </mxGeometry>
                </mxCell>
                <mxCell id="169" value="创建配送单，初始状态SUBMITTED(&quot;已下单&quot;）" style="edgeStyle=orthogonalEdgeStyle;html=1;align=left;spacingLeft=2;endArrow=block;rounded=0;fontSize=17;strokeWidth=2;" parent="4" edge="1">
                    <mxGeometry relative="1" as="geometry">
                        <mxPoint x="150" y="2350" as="sourcePoint"/>
                        <Array as="points">
                            <mxPoint x="150" y="2350"/>
                            <mxPoint x="221" y="2350"/>
                            <mxPoint x="221" y="2399"/>
                        </Array>
                        <mxPoint x="151" y="2399" as="targetPoint"/>
                    </mxGeometry>
                </mxCell>
                <mxCell id="170" value="配送单与运输单关联" style="edgeStyle=orthogonalEdgeStyle;html=1;align=left;spacingLeft=2;endArrow=block;rounded=0;fontSize=17;strokeWidth=2;" parent="4" edge="1">
                    <mxGeometry relative="1" as="geometry">
                        <mxPoint x="150" y="2430" as="sourcePoint"/>
                        <Array as="points">
                            <mxPoint x="150" y="2430"/>
                            <mxPoint x="221" y="2430"/>
                            <mxPoint x="221" y="2479"/>
                        </Array>
                        <mxPoint x="151" y="2479" as="targetPoint"/>
                    </mxGeometry>
                </mxCell>
                <mxCell id="177" value="&lt;div style=&quot;text-align: center&quot;&gt;扭转配送单状态为WAIT_SHIPMENT(&quot;等待装箱&quot;)&lt;/div&gt;" style="edgeStyle=orthogonalEdgeStyle;html=1;align=left;spacingLeft=2;endArrow=block;rounded=0;fontSize=17;strokeWidth=2;" parent="4" edge="1">
                    <mxGeometry relative="1" as="geometry">
                        <mxPoint x="150" y="3460" as="sourcePoint"/>
                        <Array as="points">
                            <mxPoint x="150" y="3460"/>
                            <mxPoint x="221" y="3460"/>
                            <mxPoint x="221" y="3509"/>
                        </Array>
                        <mxPoint x="151" y="3509" as="targetPoint"/>
                    </mxGeometry>
                </mxCell>
                <mxCell id="178" value="&lt;div style=&quot;text-align: center&quot;&gt;扭转运输单状态为WAIT_SHIPMENT(&quot;等待装箱&quot;)&lt;/div&gt;" style="edgeStyle=orthogonalEdgeStyle;html=1;align=left;spacingLeft=2;endArrow=block;rounded=0;fontSize=17;strokeWidth=2;" parent="4" edge="1">
                    <mxGeometry relative="1" as="geometry">
                        <mxPoint x="150" y="3530" as="sourcePoint"/>
                        <Array as="points">
                            <mxPoint x="150" y="3530"/>
                            <mxPoint x="221" y="3530"/>
                            <mxPoint x="221" y="3579"/>
                        </Array>
                        <mxPoint x="151" y="3579" as="targetPoint"/>
                    </mxGeometry>
                </mxCell>
                <mxCell id="181" value="" style="html=1;points=[];perimeter=orthogonalPerimeter;strokeWidth=2;" parent="4" vertex="1">
                    <mxGeometry x="120" y="3640" width="30" height="270" as="geometry"/>
                </mxCell>
                <mxCell id="182" value="&lt;span style=&quot;font-size: 17px ; text-align: left&quot;&gt;投柜&lt;/span&gt;" style="html=1;verticalAlign=bottom;endArrow=block;strokeWidth=2;" parent="4" edge="1">
                    <mxGeometry width="80" relative="1" as="geometry">
                        <mxPoint x="-160" y="3650" as="sourcePoint"/>
                        <mxPoint x="120" y="3650" as="targetPoint"/>
                    </mxGeometry>
                </mxCell>
                <mxCell id="183" value="&lt;div style=&quot;text-align: center&quot;&gt;扭转配送单状态为PENDING(&quot;待配送&quot;）&lt;/div&gt;" style="edgeStyle=orthogonalEdgeStyle;html=1;align=left;spacingLeft=2;endArrow=block;rounded=0;fontSize=17;strokeWidth=2;" parent="4" edge="1">
                    <mxGeometry relative="1" as="geometry">
                        <mxPoint x="150" y="3660" as="sourcePoint"/>
                        <Array as="points">
                            <mxPoint x="150" y="3660"/>
                            <mxPoint x="221" y="3660"/>
                            <mxPoint x="221" y="3709"/>
                        </Array>
                        <mxPoint x="151" y="3709" as="targetPoint"/>
                    </mxGeometry>
                </mxCell>
                <mxCell id="192" value="" style="html=1;points=[];perimeter=orthogonalPerimeter;strokeWidth=2;" parent="4" vertex="1">
                    <mxGeometry x="120" y="4050" width="30" height="150" as="geometry"/>
                </mxCell>
                <mxCell id="165" value="&lt;div style=&quot;text-align: center&quot;&gt;扭转配送单状态为&lt;/div&gt;&lt;span style=&quot;text-align: center&quot;&gt;CONFIRMED(&quot;已确认&quot;)&lt;/span&gt;" style="edgeStyle=orthogonalEdgeStyle;html=1;align=left;spacingLeft=2;endArrow=block;rounded=0;fontSize=17;strokeWidth=2;" parent="4" edge="1">
                    <mxGeometry relative="1" as="geometry">
                        <mxPoint x="150" y="4110" as="sourcePoint"/>
                        <Array as="points">
                            <mxPoint x="150" y="4110"/>
                            <mxPoint x="221" y="4110"/>
                            <mxPoint x="221" y="4159"/>
                        </Array>
                        <mxPoint x="151" y="4159" as="targetPoint"/>
                    </mxGeometry>
                </mxCell>
                <mxCell id="195" value="&lt;div style=&quot;text-align: center&quot;&gt;扭转呼叫单状态为COMPLETED(&quot;完成&quot;)&lt;/div&gt;" style="edgeStyle=orthogonalEdgeStyle;html=1;align=left;spacingLeft=2;endArrow=block;rounded=0;fontSize=17;strokeWidth=2;" parent="4" edge="1">
                    <mxGeometry relative="1" as="geometry">
                        <mxPoint x="150" y="3389" as="sourcePoint"/>
                        <Array as="points">
                            <mxPoint x="150" y="3389"/>
                            <mxPoint x="221" y="3389"/>
                            <mxPoint x="221" y="3438"/>
                        </Array>
                        <mxPoint x="151" y="3438" as="targetPoint"/>
                    </mxGeometry>
                </mxCell>
                <mxCell id="185" value="&lt;span style=&quot;font-size: 17px ; text-align: left&quot;&gt;创建调度配送单&lt;/span&gt;" style="html=1;verticalAlign=bottom;endArrow=block;strokeWidth=2;" parent="4" edge="1">
                    <mxGeometry width="80" relative="1" as="geometry">
                        <mxPoint x="150" y="3800" as="sourcePoint"/>
                        <mxPoint x="590" y="3800" as="targetPoint"/>
                    </mxGeometry>
                </mxCell>
                <mxCell id="238" value="&lt;div style=&quot;text-align: center&quot;&gt;扭转运输单状态为PENDING(&quot;待配送&quot;）&lt;/div&gt;" style="edgeStyle=orthogonalEdgeStyle;html=1;align=left;spacingLeft=2;endArrow=block;rounded=0;fontSize=17;strokeWidth=2;" parent="4" edge="1">
                    <mxGeometry relative="1" as="geometry">
                        <mxPoint x="150" y="3730" as="sourcePoint"/>
                        <Array as="points">
                            <mxPoint x="150" y="3730"/>
                            <mxPoint x="221" y="3730"/>
                            <mxPoint x="221" y="3779"/>
                        </Array>
                        <mxPoint x="151" y="3779" as="targetPoint"/>
                    </mxGeometry>
                </mxCell>
                <mxCell id="249" value="&lt;div style=&quot;text-align: center&quot;&gt;扭转运输单状态为&lt;/div&gt;&lt;span style=&quot;text-align: center&quot;&gt;DEPARTED(&quot;已出发&quot;)&lt;/span&gt;" style="edgeStyle=orthogonalEdgeStyle;html=1;align=left;spacingLeft=2;endArrow=block;rounded=0;fontSize=17;strokeWidth=2;" parent="4" edge="1">
                    <mxGeometry relative="1" as="geometry">
                        <mxPoint x="150" y="4390" as="sourcePoint"/>
                        <Array as="points">
                            <mxPoint x="150" y="4390"/>
                            <mxPoint x="221" y="4390"/>
                            <mxPoint x="221" y="4439"/>
                        </Array>
                        <mxPoint x="151" y="4439" as="targetPoint"/>
                    </mxGeometry>
                </mxCell>
                <mxCell id="250" value="&lt;div style=&quot;text-align: center&quot;&gt;出库单所属运输单全部出发扭转状态为SHIPPED(&quot;已发货&quot;)&lt;/div&gt;" style="edgeStyle=orthogonalEdgeStyle;html=1;align=left;spacingLeft=2;endArrow=block;rounded=0;fontSize=17;strokeWidth=2;" parent="4" edge="1">
                    <mxGeometry relative="1" as="geometry">
                        <mxPoint x="150" y="4470" as="sourcePoint"/>
                        <Array as="points">
                            <mxPoint x="150" y="4470"/>
                            <mxPoint x="221" y="4470"/>
                            <mxPoint x="221" y="4519"/>
                        </Array>
                        <mxPoint x="151" y="4519" as="targetPoint"/>
                    </mxGeometry>
                </mxCell>
                <mxCell id="259" value="" style="html=1;points=[];perimeter=orthogonalPerimeter;strokeWidth=2;" parent="4" vertex="1">
                    <mxGeometry x="120" y="4600" width="30" height="220" as="geometry"/>
                </mxCell>
                <mxCell id="261" value="" style="html=1;points=[];perimeter=orthogonalPerimeter;strokeWidth=2;" parent="4" vertex="1">
                    <mxGeometry x="120" y="4860" width="30" height="100" as="geometry"/>
                </mxCell>
                <mxCell id="262" value="&lt;span style=&quot;font-size: 17px ; text-align: left&quot;&gt;登陆&lt;/span&gt;" style="html=1;verticalAlign=bottom;endArrow=block;strokeWidth=2;" parent="4" edge="1">
                    <mxGeometry width="80" relative="1" as="geometry">
                        <mxPoint x="-160" y="4880" as="sourcePoint"/>
                        <mxPoint x="120" y="4880" as="targetPoint"/>
                    </mxGeometry>
                </mxCell>
                <mxCell id="263" value="&lt;div style=&quot;text-align: center&quot;&gt;根据角色校验当前位置或科室&lt;/div&gt;" style="edgeStyle=orthogonalEdgeStyle;html=1;align=left;spacingLeft=2;endArrow=block;rounded=0;fontSize=17;strokeWidth=2;" parent="4" edge="1">
                    <mxGeometry relative="1" as="geometry">
                        <mxPoint x="150" y="4885.5" as="sourcePoint"/>
                        <Array as="points">
                            <mxPoint x="150" y="4885.5"/>
                            <mxPoint x="221" y="4885.5"/>
                            <mxPoint x="221" y="4934.5"/>
                        </Array>
                        <mxPoint x="151" y="4934.5" as="targetPoint"/>
                    </mxGeometry>
                </mxCell>
                <mxCell id="264" value="返回账户信息和点位信息" style="html=1;verticalAlign=bottom;endArrow=open;dashed=1;endSize=8;fontSize=17;strokeWidth=2;exitX=-0.067;exitY=0.146;exitDx=0;exitDy=0;exitPerimeter=0;" parent="4" edge="1">
                    <mxGeometry relative="1" as="geometry">
                        <mxPoint x="119.99999999999977" y="4940" as="sourcePoint"/>
                        <mxPoint x="-157.99" y="4940.360000000001" as="targetPoint"/>
                    </mxGeometry>
                </mxCell>
                <mxCell id="266" value="" style="html=1;points=[];perimeter=orthogonalPerimeter;strokeWidth=2;" parent="4" vertex="1">
                    <mxGeometry x="120" y="4991" width="30" height="509" as="geometry"/>
                </mxCell>
                <mxCell id="267" value="&lt;span style=&quot;font-size: 17px ; text-align: left&quot;&gt;查询当前用户具有操作权限订单&lt;/span&gt;" style="html=1;verticalAlign=bottom;endArrow=block;strokeWidth=2;" parent="4" edge="1">
                    <mxGeometry width="80" relative="1" as="geometry">
                        <mxPoint x="-160" y="5010" as="sourcePoint"/>
                        <mxPoint x="120" y="5010" as="targetPoint"/>
                    </mxGeometry>
                </mxCell>
                <mxCell id="268" value="&lt;div style=&quot;text-align: center&quot;&gt;过滤掉已提交，待配送，已出发状态的配送单&lt;/div&gt;" style="edgeStyle=orthogonalEdgeStyle;html=1;align=left;spacingLeft=2;endArrow=block;rounded=0;fontSize=17;strokeWidth=2;" parent="4" edge="1">
                    <mxGeometry relative="1" as="geometry">
                        <mxPoint x="150" y="5010" as="sourcePoint"/>
                        <Array as="points">
                            <mxPoint x="150" y="5010"/>
                            <mxPoint x="221" y="5010"/>
                            <mxPoint x="221" y="5059"/>
                        </Array>
                        <mxPoint x="151" y="5059" as="targetPoint"/>
                    </mxGeometry>
                </mxCell>
                <mxCell id="269" value="&lt;div style=&quot;text-align: center&quot;&gt;过滤掉不是该目的地订单&lt;/div&gt;" style="edgeStyle=orthogonalEdgeStyle;html=1;align=left;spacingLeft=2;endArrow=block;rounded=0;fontSize=17;strokeWidth=2;" parent="4" edge="1">
                    <mxGeometry relative="1" as="geometry">
                        <mxPoint x="150" y="5091" as="sourcePoint"/>
                        <Array as="points">
                            <mxPoint x="150" y="5091"/>
                            <mxPoint x="221" y="5091"/>
                            <mxPoint x="221" y="5140"/>
                        </Array>
                        <mxPoint x="151" y="5140" as="targetPoint"/>
                    </mxGeometry>
                </mxCell>
                <mxCell id="270" value="&lt;div style=&quot;text-align: center&quot;&gt;过滤掉与用户科室没有包含的订单&lt;/div&gt;" style="edgeStyle=orthogonalEdgeStyle;html=1;align=left;spacingLeft=2;endArrow=block;rounded=0;fontSize=17;strokeWidth=2;" parent="4" edge="1">
                    <mxGeometry relative="1" as="geometry">
                        <mxPoint x="150" y="5171.000000000001" as="sourcePoint"/>
                        <Array as="points">
                            <mxPoint x="150" y="5171"/>
                            <mxPoint x="221" y="5171"/>
                            <mxPoint x="221" y="5220"/>
                        </Array>
                        <mxPoint x="151" y="5220" as="targetPoint"/>
                    </mxGeometry>
                </mxCell>
                <mxCell id="271" value="返回可操作订单" style="html=1;verticalAlign=bottom;endArrow=open;dashed=1;endSize=8;fontSize=17;strokeWidth=2;exitX=-0.067;exitY=0.146;exitDx=0;exitDy=0;exitPerimeter=0;" parent="4" edge="1">
                    <mxGeometry relative="1" as="geometry">
                        <mxPoint x="120" y="5240" as="sourcePoint"/>
                        <mxPoint x="-157.98999999999978" y="5240.360000000001" as="targetPoint"/>
                    </mxGeometry>
                </mxCell>
                <mxCell id="274" value="&lt;div style=&quot;text-align: center&quot;&gt;过滤掉没有到达的呼叫任务&lt;/div&gt;" style="edgeStyle=orthogonalEdgeStyle;html=1;align=left;spacingLeft=2;endArrow=block;rounded=0;fontSize=17;strokeWidth=2;" parent="4" edge="1">
                    <mxGeometry relative="1" as="geometry">
                        <mxPoint x="150" y="5301" as="sourcePoint"/>
                        <Array as="points">
                            <mxPoint x="150" y="5301"/>
                            <mxPoint x="221" y="5301"/>
                            <mxPoint x="221" y="5350"/>
                        </Array>
                        <mxPoint x="151" y="5350" as="targetPoint"/>
                    </mxGeometry>
                </mxCell>
                <mxCell id="276" value="&lt;div style=&quot;text-align: center&quot;&gt;过滤掉与用户科室没有包含的订单&lt;/div&gt;" style="edgeStyle=orthogonalEdgeStyle;html=1;align=left;spacingLeft=2;endArrow=block;rounded=0;fontSize=17;strokeWidth=2;" parent="4" edge="1">
                    <mxGeometry relative="1" as="geometry">
                        <mxPoint x="150" y="5380.000000000001" as="sourcePoint"/>
                        <Array as="points">
                            <mxPoint x="150" y="5380"/>
                            <mxPoint x="221" y="5380"/>
                            <mxPoint x="221" y="5429"/>
                        </Array>
                        <mxPoint x="151" y="5429" as="targetPoint"/>
                    </mxGeometry>
                </mxCell>
                <mxCell id="273" value="普通用户校验" style="text;html=1;strokeColor=none;fillColor=none;align=center;verticalAlign=middle;whiteSpace=wrap;rounded=0;fontSize=17;" parent="4" vertex="1">
                    <mxGeometry x="460" y="5091" width="110" height="70" as="geometry"/>
                </mxCell>
                <mxCell id="279" value="返回可操作订单" style="html=1;verticalAlign=bottom;endArrow=open;dashed=1;endSize=8;fontSize=17;strokeWidth=2;exitX=-0.067;exitY=0.146;exitDx=0;exitDy=0;exitPerimeter=0;" parent="4" edge="1">
                    <mxGeometry relative="1" as="geometry">
                        <mxPoint x="120" y="5450" as="sourcePoint"/>
                        <mxPoint x="-157.98999999999978" y="5450.360000000001" as="targetPoint"/>
                    </mxGeometry>
                </mxCell>
                <mxCell id="282" value="" style="html=1;points=[];perimeter=orthogonalPerimeter;strokeWidth=2;" parent="4" vertex="1">
                    <mxGeometry x="120" y="5530" width="30" height="540" as="geometry"/>
                </mxCell>
                <mxCell id="283" value="&lt;span style=&quot;font-size: 17px ; text-align: left&quot;&gt;调用取批量件接口&lt;/span&gt;" style="html=1;verticalAlign=bottom;endArrow=block;strokeWidth=2;" parent="4" edge="1">
                    <mxGeometry width="80" relative="1" as="geometry">
                        <mxPoint x="-160" y="5550" as="sourcePoint"/>
                        <mxPoint x="120" y="5550" as="targetPoint"/>
                    </mxGeometry>
                </mxCell>
                <mxCell id="284" value="&lt;div style=&quot;text-align: center&quot;&gt;校验用户与订单科室是否包含&lt;/div&gt;" style="edgeStyle=orthogonalEdgeStyle;html=1;align=left;spacingLeft=2;endArrow=block;rounded=0;fontSize=17;strokeWidth=2;" parent="4" edge="1">
                    <mxGeometry relative="1" as="geometry">
                        <mxPoint x="150" y="5560.000000000001" as="sourcePoint"/>
                        <Array as="points">
                            <mxPoint x="150" y="5560"/>
                            <mxPoint x="221" y="5560"/>
                            <mxPoint x="221" y="5609"/>
                        </Array>
                        <mxPoint x="151" y="5609" as="targetPoint"/>
                    </mxGeometry>
                </mxCell>
                <mxCell id="285" value="&lt;div style=&quot;text-align: center&quot;&gt;扭转配送单状态为&amp;nbsp; COLLECTED(&quot;已取件&quot;）&lt;/div&gt;" style="edgeStyle=orthogonalEdgeStyle;html=1;align=left;spacingLeft=2;endArrow=block;rounded=0;fontSize=17;strokeWidth=2;" parent="4" edge="1">
                    <mxGeometry relative="1" as="geometry">
                        <mxPoint x="150" y="5630.000000000001" as="sourcePoint"/>
                        <Array as="points">
                            <mxPoint x="150" y="5630"/>
                            <mxPoint x="221" y="5630"/>
                            <mxPoint x="221" y="5679"/>
                        </Array>
                        <mxPoint x="151" y="5679" as="targetPoint"/>
                    </mxGeometry>
                </mxCell>
                <mxCell id="286" value="&lt;div style=&quot;text-align: center&quot;&gt;扭转运输单状态为&amp;nbsp; COLLECTED(&quot;已取件&quot;）&lt;/div&gt;" style="edgeStyle=orthogonalEdgeStyle;html=1;align=left;spacingLeft=2;endArrow=block;rounded=0;fontSize=17;strokeWidth=2;" parent="4" edge="1">
                    <mxGeometry relative="1" as="geometry">
                        <mxPoint x="150" y="5870.000000000001" as="sourcePoint"/>
                        <Array as="points">
                            <mxPoint x="150" y="5870"/>
                            <mxPoint x="221" y="5870"/>
                            <mxPoint x="221" y="5919"/>
                        </Array>
                        <mxPoint x="151" y="5919" as="targetPoint"/>
                    </mxGeometry>
                </mxCell>
                <mxCell id="287" value="&lt;div style=&quot;text-align: center&quot;&gt;出库单所有子任务完成扭转状态为&lt;/div&gt;&lt;span style=&quot;text-align: center&quot;&gt;COLLECTED(&quot;已取件&quot;）&lt;/span&gt;" style="edgeStyle=orthogonalEdgeStyle;html=1;align=left;spacingLeft=2;endArrow=block;rounded=0;fontSize=17;strokeWidth=2;" parent="4" edge="1">
                    <mxGeometry relative="1" as="geometry">
                        <mxPoint x="150" y="5950.000000000001" as="sourcePoint"/>
                        <Array as="points">
                            <mxPoint x="150" y="5950"/>
                            <mxPoint x="221" y="5950"/>
                            <mxPoint x="221" y="5999"/>
                        </Array>
                        <mxPoint x="151" y="5999" as="targetPoint"/>
                    </mxGeometry>
                </mxCell>
                <mxCell id="288" value="返回取件成功" style="html=1;verticalAlign=bottom;endArrow=open;dashed=1;endSize=8;fontSize=17;strokeWidth=2;exitX=-0.067;exitY=0.146;exitDx=0;exitDy=0;exitPerimeter=0;" parent="4" edge="1">
                    <mxGeometry relative="1" as="geometry">
                        <mxPoint x="120.00000000000001" y="6030" as="sourcePoint"/>
                        <mxPoint x="-157.98999999999978" y="6030.360000000001" as="targetPoint"/>
                    </mxGeometry>
                </mxCell>
                <mxCell id="3" value="&lt;font style=&quot;font-size: 24px&quot;&gt;自动单流程&lt;/font&gt;" style="text;html=1;align=center;verticalAlign=middle;resizable=0;points=[];autosize=1;strokeColor=none;fillColor=none;" parent="1" vertex="1">
                    <mxGeometry x="330" y="50" width="140" height="20" as="geometry"/>
                </mxCell>
                <mxCell id="5" value="&lt;font style=&quot;font-size: 17px&quot;&gt;医院第三方服务&lt;/font&gt;" style="shape=umlLifeline;perimeter=lifelinePerimeter;whiteSpace=wrap;html=1;container=1;collapsible=0;recursiveResize=0;outlineConnect=0;strokeWidth=2;fillColor=#f5f5f5;strokeColor=#666666;fontColor=#333333;" parent="1" vertex="1">
                    <mxGeometry x="-210" y="170" width="270" height="2580" as="geometry"/>
                </mxCell>
                <mxCell id="7" value="" style="html=1;points=[];perimeter=orthogonalPerimeter;strokeWidth=2;" parent="5" vertex="1">
                    <mxGeometry x="120" y="120" width="30" height="80" as="geometry"/>
                </mxCell>
                <mxCell id="9" value="&lt;font style=&quot;font-size: 17px&quot;&gt;通过授权AK/SK认证&lt;/font&gt;" style="html=1;verticalAlign=bottom;endArrow=block;strokeWidth=2;" parent="5" target="8" edge="1">
                    <mxGeometry width="80" relative="1" as="geometry">
                        <mxPoint x="150" y="130" as="sourcePoint"/>
                        <mxPoint x="230" y="130" as="targetPoint"/>
                    </mxGeometry>
                </mxCell>
                <mxCell id="12" value="" style="html=1;points=[];perimeter=orthogonalPerimeter;strokeWidth=2;" parent="5" vertex="1">
                    <mxGeometry x="120" y="250" width="30" height="80" as="geometry"/>
                </mxCell>
                <mxCell id="40" value="外部对接同步基础数据" style="text;html=1;strokeColor=none;fillColor=none;align=center;verticalAlign=middle;whiteSpace=wrap;rounded=0;fontSize=17;" parent="5" vertex="1">
                    <mxGeometry x="30" y="310" width="50" height="200" as="geometry"/>
                </mxCell>
                <mxCell id="52" value="" style="html=1;points=[];perimeter=orthogonalPerimeter;strokeWidth=2;" parent="5" vertex="1">
                    <mxGeometry x="120" y="740" width="30" height="260" as="geometry"/>
                </mxCell>
                <mxCell id="59" value="&lt;span style=&quot;font-size: 17px ; text-align: left&quot;&gt;护士确认医嘱&lt;/span&gt;" style="html=1;verticalAlign=bottom;endArrow=block;strokeWidth=2;entryX=0;entryY=0.125;entryDx=0;entryDy=0;entryPerimeter=0;" parent="5" edge="1">
                    <mxGeometry width="80" relative="1" as="geometry">
                        <mxPoint x="-160" y="830" as="sourcePoint"/>
                        <mxPoint x="120" y="830" as="targetPoint"/>
                    </mxGeometry>
                </mxCell>
                <mxCell id="60" value="&lt;span style=&quot;font-size: 17px ; text-align: left&quot;&gt;该医嘱单信息进入药房&lt;/span&gt;" style="html=1;verticalAlign=bottom;endArrow=block;strokeWidth=2;entryX=0;entryY=0.125;entryDx=0;entryDy=0;entryPerimeter=0;" parent="5" edge="1">
                    <mxGeometry width="80" relative="1" as="geometry">
                        <mxPoint x="-160" y="890" as="sourcePoint"/>
                        <mxPoint x="120" y="890" as="targetPoint"/>
                    </mxGeometry>
                </mxCell>
                <mxCell id="61" value="&lt;span style=&quot;font-size: 17px ; text-align: left&quot;&gt;药房点击发药&lt;/span&gt;" style="html=1;verticalAlign=bottom;endArrow=block;strokeWidth=2;entryX=0;entryY=0.125;entryDx=0;entryDy=0;entryPerimeter=0;" parent="5" edge="1">
                    <mxGeometry width="80" relative="1" as="geometry">
                        <mxPoint x="-160" y="950" as="sourcePoint"/>
                        <mxPoint x="120" y="950" as="targetPoint"/>
                    </mxGeometry>
                </mxCell>
                <mxCell id="6" value="&lt;font style=&quot;font-size: 17px&quot;&gt;open开发平台服务&lt;/font&gt;" style="shape=umlLifeline;perimeter=lifelinePerimeter;whiteSpace=wrap;html=1;container=1;collapsible=0;recursiveResize=0;outlineConnect=0;strokeWidth=2;fillColor=#dae8fc;strokeColor=#6c8ebf;" parent="1" vertex="1">
                    <mxGeometry x="90" y="170" width="270" height="2830" as="geometry"/>
                </mxCell>
                <mxCell id="8" value="" style="html=1;points=[];perimeter=orthogonalPerimeter;strokeWidth=2;" parent="6" vertex="1">
                    <mxGeometry x="120" y="120" width="30" height="80" as="geometry"/>
                </mxCell>
                <mxCell id="10" value="返回bearer token" style="html=1;verticalAlign=bottom;endArrow=open;dashed=1;endSize=8;fontSize=17;strokeWidth=2;entryX=1;entryY=0.763;entryDx=0;entryDy=0;entryPerimeter=0;" parent="6" target="7" edge="1">
                    <mxGeometry relative="1" as="geometry">
                        <mxPoint x="120" y="180" as="sourcePoint"/>
                        <mxPoint x="40" y="180" as="targetPoint"/>
                    </mxGeometry>
                </mxCell>
                <mxCell id="13" value="" style="html=1;points=[];perimeter=orthogonalPerimeter;strokeWidth=2;" parent="6" vertex="1">
                    <mxGeometry x="120" y="250" width="30" height="80" as="geometry"/>
                </mxCell>
                <mxCell id="14" value="&lt;font style=&quot;font-size: 17px&quot;&gt;同步第三方科室信息&lt;/font&gt;" style="html=1;verticalAlign=bottom;endArrow=block;strokeWidth=2;" parent="6" edge="1">
                    <mxGeometry width="80" relative="1" as="geometry">
                        <mxPoint x="-150" y="260" as="sourcePoint"/>
                        <mxPoint x="120" y="260" as="targetPoint"/>
                    </mxGeometry>
                </mxCell>
                <mxCell id="33" value="&lt;span style=&quot;font-size: 17px&quot;&gt;同步第三方&lt;/span&gt;&lt;span style=&quot;font-size: 17px&quot;&gt;物品信息&lt;/span&gt;" style="html=1;verticalAlign=bottom;endArrow=block;strokeWidth=2;entryX=0;entryY=0.174;entryDx=0;entryDy=0;entryPerimeter=0;" parent="6" target="34" edge="1">
                    <mxGeometry width="80" relative="1" as="geometry">
                        <mxPoint x="140" y="570" as="sourcePoint"/>
                        <mxPoint x="420" y="570" as="targetPoint"/>
                    </mxGeometry>
                </mxCell>
                <mxCell id="36" value="" style="html=1;points=[];perimeter=orthogonalPerimeter;strokeWidth=2;" parent="6" vertex="1">
                    <mxGeometry x="-180" y="560" width="30" height="80" as="geometry"/>
                </mxCell>
                <mxCell id="37" value="" style="html=1;points=[];perimeter=orthogonalPerimeter;strokeWidth=2;" parent="6" vertex="1">
                    <mxGeometry x="120" y="560" width="30" height="80" as="geometry"/>
                </mxCell>
                <mxCell id="38" value="&lt;font style=&quot;font-size: 17px&quot;&gt;同步第三方物品信息&lt;/font&gt;" style="html=1;verticalAlign=bottom;endArrow=block;strokeWidth=2;" parent="6" edge="1">
                    <mxGeometry width="80" relative="1" as="geometry">
                        <mxPoint x="-150" y="570" as="sourcePoint"/>
                        <mxPoint x="120" y="570" as="targetPoint"/>
                    </mxGeometry>
                </mxCell>
                <mxCell id="62" value="" style="html=1;points=[];perimeter=orthogonalPerimeter;strokeWidth=2;" parent="6" vertex="1">
                    <mxGeometry x="120" y="950" width="30" height="80" as="geometry"/>
                </mxCell>
                <mxCell id="63" value="&lt;span style=&quot;font-size: 17px ; text-align: left&quot;&gt;调用创建单据接口&lt;/span&gt;" style="html=1;verticalAlign=bottom;endArrow=block;strokeWidth=2;" parent="6" edge="1">
                    <mxGeometry width="80" relative="1" as="geometry">
                        <mxPoint x="-150" y="960" as="sourcePoint"/>
                        <mxPoint x="120" y="960" as="targetPoint"/>
                    </mxGeometry>
                </mxCell>
                <mxCell id="78" value="" style="html=1;points=[];perimeter=orthogonalPerimeter;strokeWidth=2;" parent="6" vertex="1">
                    <mxGeometry x="120" y="1760" width="30" height="80" as="geometry"/>
                </mxCell>
                <mxCell id="26" value="&lt;span style=&quot;font-size: 17px&quot;&gt;同步第三方&lt;/span&gt;&lt;span style=&quot;font-size: 17px&quot;&gt;物品分类信息&lt;/span&gt;" style="html=1;verticalAlign=bottom;endArrow=block;strokeWidth=2;" parent="1" target="27" edge="1">
                    <mxGeometry width="80" relative="1" as="geometry">
                        <mxPoint x="230" y="614" as="sourcePoint"/>
                        <mxPoint x="510" y="614" as="targetPoint"/>
                    </mxGeometry>
                </mxCell>
                <mxCell id="30" value="" style="html=1;points=[];perimeter=orthogonalPerimeter;strokeWidth=2;" parent="1" vertex="1">
                    <mxGeometry x="-90" y="604" width="30" height="80" as="geometry"/>
                </mxCell>
                <mxCell id="31" value="" style="html=1;points=[];perimeter=orthogonalPerimeter;strokeWidth=2;" parent="1" vertex="1">
                    <mxGeometry x="210" y="604" width="30" height="80" as="geometry"/>
                </mxCell>
                <mxCell id="32" value="&lt;font style=&quot;font-size: 17px&quot;&gt;同步第三方物品分类信息&lt;/font&gt;" style="html=1;verticalAlign=bottom;endArrow=block;strokeWidth=2;" parent="1" edge="1">
                    <mxGeometry width="80" relative="1" as="geometry">
                        <mxPoint x="-60" y="614" as="sourcePoint"/>
                        <mxPoint x="210" y="614" as="targetPoint"/>
                    </mxGeometry>
                </mxCell>
                <mxCell id="46" value="&lt;font style=&quot;font-size: 17px&quot;&gt;医院操作软件&lt;/font&gt;" style="shape=umlLifeline;perimeter=lifelinePerimeter;whiteSpace=wrap;html=1;container=1;collapsible=0;recursiveResize=0;outlineConnect=0;strokeWidth=2;fillColor=#f5f5f5;strokeColor=#666666;fontColor=#333333;" parent="1" vertex="1">
                    <mxGeometry x="-520" y="170" width="270" height="2580" as="geometry"/>
                </mxCell>
                <mxCell id="51" value="" style="html=1;points=[];perimeter=orthogonalPerimeter;strokeWidth=2;" parent="46" vertex="1">
                    <mxGeometry x="120" y="730" width="30" height="270" as="geometry"/>
                </mxCell>
                <mxCell id="58" value="&lt;span style=&quot;font-size: 17px&quot;&gt;医生给住院患者开医嘱&lt;/span&gt;" style="html=1;verticalAlign=bottom;endArrow=block;strokeWidth=2;entryX=0;entryY=0.125;entryDx=0;entryDy=0;entryPerimeter=0;" parent="46" edge="1">
                    <mxGeometry width="80" relative="1" as="geometry">
                        <mxPoint x="150" y="770" as="sourcePoint"/>
                        <mxPoint x="430" y="770" as="targetPoint"/>
                    </mxGeometry>
                </mxCell>
                <mxCell id="64" value="接口文档&lt;br&gt;https://doc.weixin.qq.com/doc/w3_m_djHmdTFVtUeq?scode=AHcAeAe6AA4CBAEQ4gAIoAWwYIAOg" style="text;html=1;strokeColor=#666666;fillColor=#f5f5f5;align=center;verticalAlign=middle;whiteSpace=wrap;rounded=0;fontSize=17;fontColor=#333333;" parent="1" vertex="1">
                    <mxGeometry x="-920" y="559" width="470" height="161" as="geometry"/>
                </mxCell>
                <mxCell id="87" value="" style="edgeStyle=none;html=1;fontSize=17;strokeWidth=2;" parent="1" source="85" target="86" edge="1">
                    <mxGeometry relative="1" as="geometry"/>
                </mxCell>
                <mxCell id="88" value="" style="edgeStyle=none;html=1;fontSize=17;strokeWidth=2;" parent="1" source="85" target="86" edge="1">
                    <mxGeometry relative="1" as="geometry"/>
                </mxCell>
                <mxCell id="89" value="" style="edgeStyle=none;html=1;fontSize=17;strokeWidth=2;" parent="1" source="85" target="86" edge="1">
                    <mxGeometry relative="1" as="geometry"/>
                </mxCell>
                <mxCell id="91" value="" style="edgeStyle=none;html=1;fontSize=17;strokeWidth=2;" parent="1" source="85" target="90" edge="1">
                    <mxGeometry relative="1" as="geometry"/>
                </mxCell>
                <mxCell id="85" value="出库单" style="rounded=0;whiteSpace=wrap;html=1;fontSize=17;strokeWidth=2;fillColor=#ffff88;strokeColor=#36393d;" parent="1" vertex="1">
                    <mxGeometry x="-830" y="170" width="120" height="60" as="geometry"/>
                </mxCell>
                <mxCell id="93" value="" style="edgeStyle=none;html=1;fontSize=17;strokeWidth=2;" parent="1" source="86" target="92" edge="1">
                    <mxGeometry relative="1" as="geometry"/>
                </mxCell>
                <mxCell id="95" value="" style="edgeStyle=none;html=1;fontSize=17;strokeWidth=2;" parent="1" source="86" target="94" edge="1">
                    <mxGeometry relative="1" as="geometry"/>
                </mxCell>
                <mxCell id="97" value="" style="edgeStyle=none;html=1;fontSize=17;strokeWidth=2;" parent="1" source="86" target="96" edge="1">
                    <mxGeometry relative="1" as="geometry"/>
                </mxCell>
                <mxCell id="86" value="运输单" style="rounded=0;whiteSpace=wrap;html=1;fontSize=17;strokeWidth=2;fillColor=#f0a30a;fontColor=#000000;strokeColor=#BD7000;" parent="1" vertex="1">
                    <mxGeometry x="-910" y="296" width="120" height="60" as="geometry"/>
                </mxCell>
                <mxCell id="90" value="运输单" style="rounded=0;whiteSpace=wrap;html=1;fontSize=17;strokeWidth=2;fillColor=#f0a30a;fontColor=#000000;strokeColor=#BD7000;" parent="1" vertex="1">
                    <mxGeometry x="-730" y="296" width="120" height="60" as="geometry"/>
                </mxCell>
                <mxCell id="92" value="呼叫单" style="rounded=0;whiteSpace=wrap;html=1;fontSize=17;strokeWidth=2;fillColor=#fad9d5;strokeColor=#ae4132;" parent="1" vertex="1">
                    <mxGeometry x="-1070" y="426" width="120" height="60" as="geometry"/>
                </mxCell>
                <mxCell id="94" value="配送单" style="rounded=0;whiteSpace=wrap;html=1;fontSize=17;strokeWidth=2;fillColor=#b1ddf0;strokeColor=#10739e;" parent="1" vertex="1">
                    <mxGeometry x="-910" y="426" width="120" height="60" as="geometry"/>
                </mxCell>
                <mxCell id="96" value="退回单" style="rounded=0;whiteSpace=wrap;html=1;fontSize=17;strokeWidth=2;fillColor=#b1ddf0;strokeColor=#10739e;" parent="1" vertex="1">
                    <mxGeometry x="-760" y="426" width="120" height="60" as="geometry"/>
                </mxCell>
                <mxCell id="99" value="&lt;font style=&quot;font-size: 17px&quot;&gt;调度&lt;/font&gt;" style="shape=umlLifeline;perimeter=lifelinePerimeter;whiteSpace=wrap;html=1;container=1;collapsible=0;recursiveResize=0;outlineConnect=0;strokeWidth=2;fillColor=#d5e8d4;strokeColor=#82b366;" parent="1" vertex="1">
                    <mxGeometry x="1160" y="170" width="270" height="6360" as="geometry"/>
                </mxCell>
                <mxCell id="103" value="" style="html=1;points=[];perimeter=orthogonalPerimeter;strokeWidth=2;" parent="99" vertex="1">
                    <mxGeometry x="120" y="1980" width="30" height="80" as="geometry"/>
                </mxCell>
                <mxCell id="104" value="创建上门任务" style="edgeStyle=orthogonalEdgeStyle;html=1;align=left;spacingLeft=2;endArrow=block;rounded=0;fontSize=17;strokeWidth=2;" parent="99" edge="1">
                    <mxGeometry relative="1" as="geometry">
                        <mxPoint x="150" y="1990" as="sourcePoint"/>
                        <Array as="points">
                            <mxPoint x="150" y="1990"/>
                            <mxPoint x="221" y="1990"/>
                            <mxPoint x="221" y="2039"/>
                        </Array>
                        <mxPoint x="151" y="2039" as="targetPoint"/>
                    </mxGeometry>
                </mxCell>
                <mxCell id="108" value="" style="html=1;points=[];perimeter=orthogonalPerimeter;strokeWidth=2;" parent="99" vertex="1">
                    <mxGeometry x="120" y="2100" width="30" height="80" as="geometry"/>
                </mxCell>
                <mxCell id="109" value="分配到柜子、底盘和格口" style="edgeStyle=orthogonalEdgeStyle;html=1;align=left;spacingLeft=2;endArrow=block;rounded=0;fontSize=17;strokeWidth=2;" parent="99" edge="1">
                    <mxGeometry relative="1" as="geometry">
                        <mxPoint x="150" y="2115.5" as="sourcePoint"/>
                        <Array as="points">
                            <mxPoint x="150" y="2115.5"/>
                            <mxPoint x="221" y="2115.5"/>
                            <mxPoint x="221" y="2164.5"/>
                        </Array>
                        <mxPoint x="151" y="2164.5" as="targetPoint"/>
                    </mxGeometry>
                </mxCell>
                <mxCell id="110" value="回调CONFIRMED(&quot;已确认&quot;)" style="html=1;verticalAlign=bottom;endArrow=open;dashed=1;endSize=8;fontSize=17;strokeWidth=2;" parent="99" edge="1">
                    <mxGeometry relative="1" as="geometry">
                        <mxPoint x="120" y="2167" as="sourcePoint"/>
                        <mxPoint x="-320" y="2167" as="targetPoint"/>
                    </mxGeometry>
                </mxCell>
                <mxCell id="113" value="" style="html=1;points=[];perimeter=orthogonalPerimeter;strokeWidth=2;" parent="99" vertex="1">
                    <mxGeometry x="120" y="2599" width="30" height="80" as="geometry"/>
                </mxCell>
                <mxCell id="114" value="底盘接到柜子，并出发" style="edgeStyle=orthogonalEdgeStyle;html=1;align=left;spacingLeft=2;endArrow=block;rounded=0;fontSize=17;strokeWidth=2;" parent="99" edge="1">
                    <mxGeometry relative="1" as="geometry">
                        <mxPoint x="150" y="2614.5" as="sourcePoint"/>
                        <Array as="points">
                            <mxPoint x="150" y="2614.5"/>
                            <mxPoint x="221" y="2614.5"/>
                            <mxPoint x="221" y="2663.5"/>
                        </Array>
                        <mxPoint x="151" y="2663.5" as="targetPoint"/>
                    </mxGeometry>
                </mxCell>
                <mxCell id="115" value="回调DEPARTED(&quot;已出发&quot;)" style="html=1;verticalAlign=bottom;endArrow=open;dashed=1;endSize=8;fontSize=17;strokeWidth=2;" parent="99" edge="1">
                    <mxGeometry relative="1" as="geometry">
                        <mxPoint x="120" y="2669" as="sourcePoint"/>
                        <mxPoint x="-320" y="2671" as="targetPoint"/>
                    </mxGeometry>
                </mxCell>
                <mxCell id="121" value="" style="html=1;points=[];perimeter=orthogonalPerimeter;strokeWidth=2;" parent="99" vertex="1">
                    <mxGeometry x="120" y="2869" width="30" height="80" as="geometry"/>
                </mxCell>
                <mxCell id="122" value="到达目标点位" style="edgeStyle=orthogonalEdgeStyle;html=1;align=left;spacingLeft=2;endArrow=block;rounded=0;fontSize=17;strokeWidth=2;" parent="99" edge="1">
                    <mxGeometry relative="1" as="geometry">
                        <mxPoint x="150" y="2884.5" as="sourcePoint"/>
                        <Array as="points">
                            <mxPoint x="150" y="2884.5"/>
                            <mxPoint x="221" y="2884.5"/>
                            <mxPoint x="221" y="2933.5"/>
                        </Array>
                        <mxPoint x="151" y="2933.5" as="targetPoint"/>
                    </mxGeometry>
                </mxCell>
                <mxCell id="123" value="回调ARRIVED(&quot;已到达&quot;)" style="html=1;verticalAlign=bottom;endArrow=open;dashed=1;endSize=8;fontSize=17;strokeWidth=2;" parent="99" edge="1">
                    <mxGeometry relative="1" as="geometry">
                        <mxPoint x="120" y="2939" as="sourcePoint"/>
                        <mxPoint x="-320" y="2939" as="targetPoint"/>
                    </mxGeometry>
                </mxCell>
                <mxCell id="102" value="&lt;span style=&quot;font-size: 17px ; text-align: left&quot;&gt;创建调度呼叫单&lt;/span&gt;" style="html=1;verticalAlign=bottom;endArrow=block;strokeWidth=2;" parent="99" edge="1">
                    <mxGeometry width="80" relative="1" as="geometry">
                        <mxPoint x="-320" y="1990" as="sourcePoint"/>
                        <mxPoint x="120" y="1990" as="targetPoint"/>
                    </mxGeometry>
                </mxCell>
                <mxCell id="184" value="" style="html=1;points=[];perimeter=orthogonalPerimeter;strokeWidth=2;" parent="99" vertex="1">
                    <mxGeometry x="120" y="3780" width="30" height="210" as="geometry"/>
                </mxCell>
                <mxCell id="186" value="&lt;div style=&quot;text-align: center&quot;&gt;创建调度配送单&lt;/div&gt;" style="edgeStyle=orthogonalEdgeStyle;html=1;align=left;spacingLeft=2;endArrow=block;rounded=0;fontSize=17;strokeWidth=2;" parent="99" edge="1">
                    <mxGeometry relative="1" as="geometry">
                        <mxPoint x="150" y="3800" as="sourcePoint"/>
                        <Array as="points">
                            <mxPoint x="150" y="3800"/>
                            <mxPoint x="221" y="3800"/>
                            <mxPoint x="221" y="3849"/>
                        </Array>
                        <mxPoint x="151" y="3849" as="targetPoint"/>
                    </mxGeometry>
                </mxCell>
                <mxCell id="188" value="&lt;div style=&quot;text-align: center&quot;&gt;立即出发指令&lt;/div&gt;" style="edgeStyle=orthogonalEdgeStyle;html=1;align=left;spacingLeft=2;endArrow=block;rounded=0;fontSize=17;strokeWidth=2;" parent="99" edge="1">
                    <mxGeometry relative="1" as="geometry">
                        <mxPoint x="150" y="3873" as="sourcePoint"/>
                        <Array as="points">
                            <mxPoint x="150" y="3873"/>
                            <mxPoint x="221" y="3873"/>
                            <mxPoint x="221" y="3922"/>
                        </Array>
                        <mxPoint x="151" y="3922" as="targetPoint"/>
                    </mxGeometry>
                </mxCell>
                <mxCell id="189" value="" style="html=1;points=[];perimeter=orthogonalPerimeter;strokeWidth=2;" parent="99" vertex="1">
                    <mxGeometry x="120" y="4020" width="30" height="90" as="geometry"/>
                </mxCell>
                <mxCell id="190" value="&lt;div style=&quot;text-align: center&quot;&gt;底盘接到柜子&lt;/div&gt;" style="edgeStyle=orthogonalEdgeStyle;html=1;align=left;spacingLeft=2;endArrow=block;rounded=0;fontSize=17;strokeWidth=2;" parent="99" edge="1">
                    <mxGeometry relative="1" as="geometry">
                        <mxPoint x="150" y="4030" as="sourcePoint"/>
                        <Array as="points">
                            <mxPoint x="150" y="4030"/>
                            <mxPoint x="221" y="4030"/>
                            <mxPoint x="221" y="4079"/>
                        </Array>
                        <mxPoint x="151" y="4079" as="targetPoint"/>
                    </mxGeometry>
                </mxCell>
                <mxCell id="191" value="回调CONFIRMED(&quot;已确认&quot;)" style="html=1;verticalAlign=bottom;endArrow=open;dashed=1;endSize=8;fontSize=17;strokeWidth=2;" parent="99" edge="1">
                    <mxGeometry relative="1" as="geometry">
                        <mxPoint x="120" y="4080" as="sourcePoint"/>
                        <mxPoint x="-320" y="4080" as="targetPoint"/>
                    </mxGeometry>
                </mxCell>
                <mxCell id="290" value="" style="html=1;points=[];perimeter=orthogonalPerimeter;strokeWidth=2;" parent="99" vertex="1">
                    <mxGeometry x="120" y="5690" width="30" height="80" as="geometry"/>
                </mxCell>
                <mxCell id="293" value="&lt;div style=&quot;text-align: center&quot;&gt;调度配送单状态扭转为完成&lt;/div&gt;" style="edgeStyle=orthogonalEdgeStyle;html=1;align=left;spacingLeft=2;endArrow=block;rounded=0;fontSize=17;strokeWidth=2;" parent="99" edge="1">
                    <mxGeometry relative="1" as="geometry">
                        <mxPoint x="150" y="5705.500000000001" as="sourcePoint"/>
                        <Array as="points">
                            <mxPoint x="150" y="5705.5"/>
                            <mxPoint x="221" y="5705.5"/>
                            <mxPoint x="221" y="5754.5"/>
                        </Array>
                        <mxPoint x="151" y="5754.5" as="targetPoint"/>
                    </mxGeometry>
                </mxCell>
                <mxCell id="147" value="&lt;font style=&quot;font-size: 17px&quot;&gt;配送平板&lt;/font&gt;" style="shape=umlLifeline;perimeter=lifelinePerimeter;whiteSpace=wrap;html=1;container=1;collapsible=0;recursiveResize=0;outlineConnect=0;strokeWidth=2;fillColor=#e1d5e7;strokeColor=#9673a6;" parent="1" vertex="1">
                    <mxGeometry x="380" y="170" width="270" height="6620" as="geometry"/>
                </mxCell>
                <mxCell id="150" value="" style="html=1;points=[];perimeter=orthogonalPerimeter;strokeWidth=2;" parent="147" vertex="1">
                    <mxGeometry x="120" y="1920" width="30" height="80" as="geometry"/>
                </mxCell>
                <mxCell id="152" value="" style="html=1;points=[];perimeter=orthogonalPerimeter;strokeWidth=2;" parent="147" vertex="1">
                    <mxGeometry x="120" y="2230" width="30" height="80" as="geometry"/>
                </mxCell>
                <mxCell id="153" value="mqtt发送呼叫单状态和轨迹消息" style="html=1;verticalAlign=bottom;endArrow=open;dashed=1;endSize=8;fontSize=17;strokeWidth=2;exitX=-0.067;exitY=0.146;exitDx=0;exitDy=0;exitPerimeter=0;" parent="147" edge="1">
                    <mxGeometry relative="1" as="geometry">
                        <mxPoint x="427.9899999999998" y="2255.64" as="sourcePoint"/>
                        <mxPoint x="150" y="2256" as="targetPoint"/>
                    </mxGeometry>
                </mxCell>
                <mxCell id="154" value="" style="html=1;points=[];perimeter=orthogonalPerimeter;strokeWidth=2;" parent="147" vertex="1">
                    <mxGeometry x="120" y="2769" width="30" height="80" as="geometry"/>
                </mxCell>
                <mxCell id="155" value="mqtt发送呼叫单状态和轨迹消息" style="html=1;verticalAlign=bottom;endArrow=open;dashed=1;endSize=8;fontSize=17;strokeWidth=2;exitX=-0.067;exitY=0.146;exitDx=0;exitDy=0;exitPerimeter=0;" parent="147" edge="1">
                    <mxGeometry relative="1" as="geometry">
                        <mxPoint x="427.9899999999998" y="2794.64" as="sourcePoint"/>
                        <mxPoint x="150" y="2795" as="targetPoint"/>
                    </mxGeometry>
                </mxCell>
                <mxCell id="156" value="" style="html=1;points=[];perimeter=orthogonalPerimeter;strokeWidth=2;" parent="147" vertex="1">
                    <mxGeometry x="120" y="3039" width="30" height="80" as="geometry"/>
                </mxCell>
                <mxCell id="157" value="mqtt发送呼叫单状态和轨迹消息" style="html=1;verticalAlign=bottom;endArrow=open;dashed=1;endSize=8;fontSize=17;strokeWidth=2;exitX=-0.067;exitY=0.146;exitDx=0;exitDy=0;exitPerimeter=0;" parent="147" edge="1">
                    <mxGeometry relative="1" as="geometry">
                        <mxPoint x="427.9899999999998" y="3064.64" as="sourcePoint"/>
                        <mxPoint x="150" y="3065" as="targetPoint"/>
                    </mxGeometry>
                </mxCell>
                <mxCell id="158" value="" style="html=1;points=[];perimeter=orthogonalPerimeter;strokeWidth=2;" parent="147" vertex="1">
                    <mxGeometry x="120" y="3239" width="30" height="80" as="geometry"/>
                </mxCell>
                <mxCell id="162" value="" style="html=1;points=[];perimeter=orthogonalPerimeter;strokeWidth=2;" parent="147" vertex="1">
                    <mxGeometry x="120" y="3359" width="30" height="80" as="geometry"/>
                </mxCell>
                <mxCell id="180" value="" style="html=1;points=[];perimeter=orthogonalPerimeter;strokeWidth=2;" parent="147" vertex="1">
                    <mxGeometry x="120" y="3640" width="30" height="80" as="geometry"/>
                </mxCell>
                <mxCell id="245" value="" style="html=1;points=[];perimeter=orthogonalPerimeter;strokeWidth=2;" parent="147" vertex="1">
                    <mxGeometry x="120" y="4170" width="30" height="80" as="geometry"/>
                </mxCell>
                <mxCell id="246" value="mqtt发送配送单状态和轨迹消息" style="html=1;verticalAlign=bottom;endArrow=open;dashed=1;endSize=8;fontSize=17;strokeWidth=2;exitX=-0.067;exitY=0.146;exitDx=0;exitDy=0;exitPerimeter=0;" parent="147" edge="1">
                    <mxGeometry relative="1" as="geometry">
                        <mxPoint x="427.9899999999998" y="4195.639999999999" as="sourcePoint"/>
                        <mxPoint x="150" y="4196" as="targetPoint"/>
                    </mxGeometry>
                </mxCell>
                <mxCell id="247" value="" style="html=1;points=[];perimeter=orthogonalPerimeter;strokeWidth=2;" parent="147" vertex="1">
                    <mxGeometry x="120" y="4350" width="30" height="80" as="geometry"/>
                </mxCell>
                <mxCell id="248" value="mqtt发送配送单状态和轨迹消息" style="html=1;verticalAlign=bottom;endArrow=open;dashed=1;endSize=8;fontSize=17;strokeWidth=2;exitX=-0.067;exitY=0.146;exitDx=0;exitDy=0;exitPerimeter=0;" parent="147" edge="1">
                    <mxGeometry relative="1" as="geometry">
                        <mxPoint x="427.9899999999998" y="4370" as="sourcePoint"/>
                        <mxPoint x="150" y="4370.360000000001" as="targetPoint"/>
                    </mxGeometry>
                </mxCell>
                <mxCell id="260" value="" style="html=1;points=[];perimeter=orthogonalPerimeter;strokeWidth=2;" parent="147" vertex="1">
                    <mxGeometry x="120" y="4870" width="30" height="80" as="geometry"/>
                </mxCell>
                <mxCell id="265" value="" style="html=1;points=[];perimeter=orthogonalPerimeter;strokeWidth=2;" parent="147" vertex="1">
                    <mxGeometry x="120" y="4990" width="30" height="480" as="geometry"/>
                </mxCell>
                <mxCell id="280" value="" style="html=1;points=[];perimeter=orthogonalPerimeter;strokeWidth=2;" parent="147" vertex="1">
                    <mxGeometry x="120" y="5530" width="30" height="620" as="geometry"/>
                </mxCell>
                <mxCell id="289" value="&lt;div style=&quot;text-align: center&quot;&gt;弹开柜门&lt;/div&gt;" style="edgeStyle=orthogonalEdgeStyle;html=1;align=left;spacingLeft=2;endArrow=block;rounded=0;fontSize=17;strokeWidth=2;" parent="147" edge="1">
                    <mxGeometry relative="1" as="geometry">
                        <mxPoint x="150" y="6060.000000000001" as="sourcePoint"/>
                        <Array as="points">
                            <mxPoint x="150" y="6060"/>
                            <mxPoint x="221" y="6060"/>
                            <mxPoint x="221" y="6109"/>
                        </Array>
                        <mxPoint x="151" y="6109" as="targetPoint"/>
                    </mxGeometry>
                </mxCell>
                <mxCell id="34" value="" style="html=1;points=[];perimeter=orthogonalPerimeter;fontSize=17;strokeWidth=2;" parent="1" vertex="1">
                    <mxGeometry x="810" y="727" width="30" height="86" as="geometry"/>
                </mxCell>
                <mxCell id="35" value="新增外部物品" style="edgeStyle=orthogonalEdgeStyle;html=1;align=left;spacingLeft=2;endArrow=block;rounded=0;fontSize=17;strokeWidth=2;" parent="1" target="34" edge="1">
                    <mxGeometry relative="1" as="geometry">
                        <mxPoint x="839" y="738" as="sourcePoint"/>
                        <Array as="points">
                            <mxPoint x="839" y="738"/>
                            <mxPoint x="910" y="738"/>
                            <mxPoint x="910" y="787"/>
                        </Array>
                        <mxPoint x="440" y="617" as="targetPoint"/>
                    </mxGeometry>
                </mxCell>
                <mxCell id="151" value="mqtt发送呼叫单状态和轨迹消息" style="html=1;verticalAlign=bottom;endArrow=open;dashed=1;endSize=8;fontSize=17;strokeWidth=2;exitX=-0.067;exitY=0.146;exitDx=0;exitDy=0;exitPerimeter=0;entryX=1;entryY=0.375;entryDx=0;entryDy=0;entryPerimeter=0;" parent="1" source="79" target="150" edge="1">
                    <mxGeometry relative="1" as="geometry">
                        <mxPoint x="840" y="2100" as="sourcePoint"/>
                        <mxPoint x="530" y="2116" as="targetPoint"/>
                    </mxGeometry>
                </mxCell>
                <mxCell id="171" value="&lt;font style=&quot;font-size: 17px&quot;&gt;robot服务&lt;/font&gt;" style="shape=umlLifeline;perimeter=lifelinePerimeter;whiteSpace=wrap;html=1;container=1;collapsible=0;recursiveResize=0;outlineConnect=0;strokeWidth=2;fillColor=#e3c800;strokeColor=#B09500;fontColor=#000000;" parent="1" vertex="1">
                    <mxGeometry x="1490" y="170" width="270" height="6520" as="geometry"/>
                </mxCell>
                <mxCell id="175" value="" style="html=1;points=[];perimeter=orthogonalPerimeter;strokeWidth=2;" parent="171" vertex="1">
                    <mxGeometry x="120" y="2500" width="30" height="80" as="geometry"/>
                </mxCell>
                <mxCell id="176" value="将订单id放入格口context" style="edgeStyle=orthogonalEdgeStyle;html=1;align=left;spacingLeft=2;endArrow=block;rounded=0;fontSize=17;strokeWidth=2;" parent="171" edge="1">
                    <mxGeometry relative="1" as="geometry">
                        <mxPoint x="150" y="2515.5" as="sourcePoint"/>
                        <Array as="points">
                            <mxPoint x="150" y="2515.5"/>
                            <mxPoint x="221" y="2515.5"/>
                            <mxPoint x="221" y="2564.5"/>
                        </Array>
                        <mxPoint x="151" y="2564.5" as="targetPoint"/>
                    </mxGeometry>
                </mxCell>
                <mxCell id="292" value="" style="html=1;points=[];perimeter=orthogonalPerimeter;strokeWidth=2;" parent="171" vertex="1">
                    <mxGeometry x="120" y="5810" width="30" height="80" as="geometry"/>
                </mxCell>
                <mxCell id="295" value="&lt;div style=&quot;text-align: center&quot;&gt;清除格口里context&lt;/div&gt;" style="edgeStyle=orthogonalEdgeStyle;html=1;align=left;spacingLeft=2;endArrow=block;rounded=0;fontSize=17;strokeWidth=2;" parent="171" edge="1">
                    <mxGeometry relative="1" as="geometry">
                        <mxPoint x="150" y="5825.470000000001" as="sourcePoint"/>
                        <Array as="points">
                            <mxPoint x="150" y="5825.47"/>
                            <mxPoint x="221" y="5825.47"/>
                            <mxPoint x="221" y="5874.47"/>
                        </Array>
                        <mxPoint x="151" y="5874.47" as="targetPoint"/>
                    </mxGeometry>
                </mxCell>
                <mxCell id="174" value="&lt;div style=&quot;text-align: left&quot;&gt;&lt;span style=&quot;font-size: 17px&quot;&gt;占用格口&lt;/span&gt;&lt;/div&gt;" style="html=1;verticalAlign=bottom;endArrow=block;strokeWidth=2;" parent="1" edge="1">
                    <mxGeometry width="80" relative="1" as="geometry">
                        <mxPoint x="840" y="2680" as="sourcePoint"/>
                        <mxPoint x="1610" y="2680" as="targetPoint"/>
                    </mxGeometry>
                </mxCell>
                <mxCell id="187" value="&lt;div style=&quot;text-align: left&quot;&gt;&lt;span style=&quot;font-size: 17px&quot;&gt;立即出发&lt;/span&gt;&lt;/div&gt;" style="html=1;verticalAlign=bottom;endArrow=block;strokeWidth=2;" parent="1" edge="1">
                    <mxGeometry width="80" relative="1" as="geometry">
                        <mxPoint x="840" y="4040" as="sourcePoint"/>
                        <mxPoint x="1280" y="4040" as="targetPoint"/>
                    </mxGeometry>
                </mxCell>
                <mxCell id="240" value="" style="html=1;points=[];perimeter=orthogonalPerimeter;strokeWidth=2;" parent="1" vertex="1">
                    <mxGeometry x="813" y="4410" width="30" height="320" as="geometry"/>
                </mxCell>
                <mxCell id="241" value="&lt;div style=&quot;text-align: center&quot;&gt;扭转配送单状态为&lt;/div&gt;&lt;span style=&quot;text-align: center&quot;&gt;DEPARTED(&quot;已出发&quot;)&lt;/span&gt;" style="edgeStyle=orthogonalEdgeStyle;html=1;align=left;spacingLeft=2;endArrow=block;rounded=0;fontSize=17;strokeWidth=2;" parent="1" edge="1">
                    <mxGeometry relative="1" as="geometry">
                        <mxPoint x="843" y="4470" as="sourcePoint"/>
                        <Array as="points">
                            <mxPoint x="843" y="4470"/>
                            <mxPoint x="914" y="4470"/>
                            <mxPoint x="914" y="4519"/>
                        </Array>
                        <mxPoint x="844" y="4519" as="targetPoint"/>
                    </mxGeometry>
                </mxCell>
                <mxCell id="242" value="" style="html=1;points=[];perimeter=orthogonalPerimeter;strokeWidth=2;" parent="1" vertex="1">
                    <mxGeometry x="1283" y="4380" width="30" height="90" as="geometry"/>
                </mxCell>
                <mxCell id="243" value="&lt;div style=&quot;text-align: center&quot;&gt;出发&lt;/div&gt;" style="edgeStyle=orthogonalEdgeStyle;html=1;align=left;spacingLeft=2;endArrow=block;rounded=0;fontSize=17;strokeWidth=2;" parent="1" edge="1">
                    <mxGeometry relative="1" as="geometry">
                        <mxPoint x="1313" y="4390" as="sourcePoint"/>
                        <Array as="points">
                            <mxPoint x="1313" y="4390"/>
                            <mxPoint x="1384" y="4390"/>
                            <mxPoint x="1384" y="4439"/>
                        </Array>
                        <mxPoint x="1314" y="4439" as="targetPoint"/>
                    </mxGeometry>
                </mxCell>
                <mxCell id="244" value="回调DEPARTED(&quot;已出发&quot;)" style="html=1;verticalAlign=bottom;endArrow=open;dashed=1;endSize=8;fontSize=17;strokeWidth=2;" parent="1" edge="1">
                    <mxGeometry relative="1" as="geometry">
                        <mxPoint x="1283" y="4440" as="sourcePoint"/>
                        <mxPoint x="843" y="4440" as="targetPoint"/>
                    </mxGeometry>
                </mxCell>
                <mxCell id="251" value="&lt;div style=&quot;text-align: center&quot;&gt;扭转运输单状态为&lt;/div&gt;&lt;span style=&quot;text-align: center&quot;&gt;ARRIVED(&quot;已到达&quot;）&lt;/span&gt;" style="edgeStyle=orthogonalEdgeStyle;html=1;align=left;spacingLeft=2;endArrow=block;rounded=0;fontSize=17;strokeWidth=2;" parent="1" edge="1">
                    <mxGeometry relative="1" as="geometry">
                        <mxPoint x="840" y="4910" as="sourcePoint"/>
                        <Array as="points">
                            <mxPoint x="840" y="4910"/>
                            <mxPoint x="911" y="4910"/>
                            <mxPoint x="911" y="4959"/>
                        </Array>
                        <mxPoint x="841" y="4959" as="targetPoint"/>
                    </mxGeometry>
                </mxCell>
                <mxCell id="253" value="" style="html=1;points=[];perimeter=orthogonalPerimeter;strokeWidth=2;" parent="1" vertex="1">
                    <mxGeometry x="500" y="4870" width="30" height="80" as="geometry"/>
                </mxCell>
                <mxCell id="254" value="mqtt发送配送单状态和轨迹消息" style="html=1;verticalAlign=bottom;endArrow=open;dashed=1;endSize=8;fontSize=17;strokeWidth=2;exitX=-0.067;exitY=0.146;exitDx=0;exitDy=0;exitPerimeter=0;" parent="1" edge="1">
                    <mxGeometry relative="1" as="geometry">
                        <mxPoint x="807.9899999999998" y="4890" as="sourcePoint"/>
                        <mxPoint x="530" y="4890.360000000001" as="targetPoint"/>
                    </mxGeometry>
                </mxCell>
                <mxCell id="255" value="&lt;div style=&quot;text-align: center&quot;&gt;扭转配送单状态为&lt;/div&gt;&lt;span style=&quot;text-align: center&quot;&gt;ARRIVED(&quot;已到达&quot;）&lt;/span&gt;" style="edgeStyle=orthogonalEdgeStyle;html=1;align=left;spacingLeft=2;endArrow=block;rounded=0;fontSize=17;strokeWidth=2;" parent="1" edge="1">
                    <mxGeometry relative="1" as="geometry">
                        <mxPoint x="843" y="4820" as="sourcePoint"/>
                        <Array as="points">
                            <mxPoint x="843" y="4820"/>
                            <mxPoint x="914" y="4820"/>
                            <mxPoint x="914" y="4869"/>
                        </Array>
                        <mxPoint x="844" y="4869" as="targetPoint"/>
                    </mxGeometry>
                </mxCell>
                <mxCell id="256" value="" style="html=1;points=[];perimeter=orthogonalPerimeter;strokeWidth=2;" parent="1" vertex="1">
                    <mxGeometry x="1283" y="4730" width="30" height="90" as="geometry"/>
                </mxCell>
                <mxCell id="257" value="&lt;div style=&quot;text-align: center&quot;&gt;到达目标点&lt;/div&gt;" style="edgeStyle=orthogonalEdgeStyle;html=1;align=left;spacingLeft=2;endArrow=block;rounded=0;fontSize=17;strokeWidth=2;" parent="1" edge="1">
                    <mxGeometry relative="1" as="geometry">
                        <mxPoint x="1313" y="4740" as="sourcePoint"/>
                        <Array as="points">
                            <mxPoint x="1313" y="4740"/>
                            <mxPoint x="1384" y="4740"/>
                            <mxPoint x="1384" y="4789"/>
                        </Array>
                        <mxPoint x="1314" y="4789" as="targetPoint"/>
                    </mxGeometry>
                </mxCell>
                <mxCell id="258" value="回调ARRIVED(&quot;已到达&quot;）" style="html=1;verticalAlign=bottom;endArrow=open;dashed=1;endSize=8;fontSize=17;strokeWidth=2;" parent="1" edge="1">
                    <mxGeometry relative="1" as="geometry">
                        <mxPoint x="1283" y="4790" as="sourcePoint"/>
                        <mxPoint x="843" y="4790" as="targetPoint"/>
                    </mxGeometry>
                </mxCell>
                <mxCell id="278" value="管理员校验" style="text;html=1;strokeColor=none;fillColor=none;align=center;verticalAlign=middle;whiteSpace=wrap;rounded=0;fontSize=17;" parent="1" vertex="1">
                    <mxGeometry x="1150" y="5460" width="110" height="70" as="geometry"/>
                </mxCell>
                <mxCell id="291" value="&lt;span style=&quot;font-size: 17px ; text-align: left&quot;&gt;调度完成接口&lt;/span&gt;" style="html=1;verticalAlign=bottom;endArrow=block;strokeWidth=2;" parent="1" target="290" edge="1">
                    <mxGeometry width="80" relative="1" as="geometry">
                        <mxPoint x="843" y="5880" as="sourcePoint"/>
                        <mxPoint x="1123" y="5880" as="targetPoint"/>
                    </mxGeometry>
                </mxCell>
                <mxCell id="294" value="&lt;span style=&quot;font-size: 17px ; text-align: left&quot;&gt;清空格口&lt;/span&gt;" style="html=1;verticalAlign=bottom;endArrow=block;strokeWidth=2;" parent="1" target="292" edge="1">
                    <mxGeometry width="80" relative="1" as="geometry">
                        <mxPoint x="843" y="5990" as="sourcePoint"/>
                        <mxPoint x="1280" y="5990" as="targetPoint"/>
                    </mxGeometry>
                </mxCell>
                <mxCell id="297" value="出库单状态&lt;br&gt;SUBMITTED(&quot;已下单&quot;) &lt;br&gt;SHIPPED(&quot;已发货&quot;)&lt;br&gt; COLLECTED(&quot;已完成&quot;) &lt;br&gt;WITHDRAWN(&quot;已撤回&quot;)" style="rounded=0;whiteSpace=wrap;html=1;fontSize=17;strokeWidth=2;fillColor=#ffff88;strokeColor=#36393d;" parent="1" vertex="1">
                    <mxGeometry x="-940" y="750" width="320" height="273" as="geometry"/>
                </mxCell>
                <mxCell id="298" value="运输单&lt;br&gt;&lt;div&gt;SUBMITTED(&quot;等待分配&quot;)&lt;/div&gt;&lt;div&gt;PICK_SUCCESS(&quot;呼叫成功&quot;)&lt;/div&gt;&lt;div&gt;PICK_DEPARTED(&quot;呼叫出发&quot;)&lt;/div&gt;&lt;div&gt;PICK_ARRIVED(&quot;呼叫到达&quot;)&lt;/div&gt;&lt;div&gt;PICK_UP_FAILED(&quot;呼叫失败&quot;)&lt;/div&gt;&lt;div&gt;PICK_CANCELLED(&quot;呼叫取消&quot;)&lt;/div&gt;&lt;div&gt;EXPIRED_SHIPMENT(&quot;呼叫到达等待超时&quot;)&lt;/div&gt;&lt;div&gt;WAIT_SHIPMENT(&quot;等待装箱&quot;)&lt;/div&gt;&lt;div&gt;PENDING(&quot;待配送&quot;)&lt;/div&gt;&lt;div&gt;DEPARTED(&quot;已出发&quot;)&lt;/div&gt;&lt;div&gt;ARRIVED(&quot;已到达&quot;)&lt;/div&gt;&lt;div&gt;COLLECTED(&quot;已完成&quot;)&lt;/div&gt;&lt;div&gt;DELIVERY_FAILED(&quot;配送失败&quot;)&lt;/div&gt;&lt;div&gt;EXPIRED(&quot;超时&quot;)&lt;/div&gt;&lt;div&gt;MANUAL_PROCESSED(&quot;人工处理&quot;)&lt;/div&gt;" style="rounded=0;whiteSpace=wrap;html=1;fontSize=17;strokeWidth=2;fillColor=#f0a30a;fontColor=#000000;strokeColor=#BD7000;" parent="1" vertex="1">
                    <mxGeometry x="-955" y="1050" width="370" height="430" as="geometry"/>
                </mxCell>
                <mxCell id="299" value="呼叫单&lt;br&gt;&lt;div&gt;REQUESTED(&quot;等待分配&quot;)&lt;/div&gt;&lt;div&gt;PICK_SUCCESS(&quot;呼叫成功&quot;)&lt;/div&gt;&lt;div&gt;DEPARTED(&quot;已出发&quot;)&lt;/div&gt;&lt;div&gt;ARRIVED(&quot;已到达&quot;)&lt;/div&gt;&lt;div&gt;PICK_FAILED(&quot;呼叫失败&quot;)&lt;/div&gt;&lt;div&gt;CANCELLED(&quot;已取消&quot;)&lt;/div&gt;&lt;div&gt;EXPIRED(&quot;超时&quot;)&lt;/div&gt;&lt;div&gt;COMPLETED(&quot;已完成&quot;)&lt;/div&gt;" style="rounded=0;whiteSpace=wrap;html=1;fontSize=17;strokeWidth=2;fillColor=#fad9d5;strokeColor=#ae4132;" parent="1" vertex="1">
                    <mxGeometry x="-970" y="1530" width="380" height="300" as="geometry"/>
                </mxCell>
                <mxCell id="300" value="配送单/退回单&lt;br&gt;&lt;div&gt;SUBMITTED(&quot;已下单&quot;)&lt;/div&gt;&lt;div&gt;WAIT_SHIPMENT(&quot;等待装箱&quot;)&lt;/div&gt;&lt;div&gt;PENDING(&quot;待配送&quot;)&lt;/div&gt;&lt;div&gt;CONFIRMED(&quot;已确认&quot;)&lt;/div&gt;&lt;div&gt;DEPARTED(&quot;已出发&quot;)&lt;/div&gt;&lt;div&gt;ARRIVED(&quot;已到达&quot;)&lt;/div&gt;&lt;div&gt;FAILED(&quot;配送失败&quot;)&lt;/div&gt;&lt;div&gt;EXPIRED(&quot;超时&quot;)&lt;/div&gt;&lt;div&gt;MANUAL_PROCESSED(&quot;人工处理&quot;)&lt;/div&gt;&lt;div&gt;COLLECTED(&quot;已取件&quot;)&lt;/div&gt;&lt;div&gt;CANCELLED(&quot;已取消&quot;)&lt;/div&gt;&lt;div&gt;ABANDONED(&quot;放弃&quot;)&lt;/div&gt;&lt;div&gt;WITHDRAWN(&quot;撤回&quot;)&lt;/div&gt;" style="rounded=0;whiteSpace=wrap;html=1;fontSize=17;strokeWidth=2;fillColor=#b1ddf0;strokeColor=#10739e;" parent="1" vertex="1">
                    <mxGeometry x="-970" y="1860" width="370" height="300" as="geometry"/>
                </mxCell>
            </root>
        </mxGraphModel>
    </diagram>
</mxfile>